<svg version="1" xmlns="http://www.w3.org/2000/svg" width="1714.667" height="1714.667" viewBox="0 0 1286.000000 1286.000000"><path d="M167.1 510.9c-1.1 2.7-2.1 5.4-2.1 5.9 0 .6-.7 1.2-1.4 1.5-.8.3-1.8 2.2-2.2 4.2-.4 2.5-1.4 4-3 4.7-1.4.6-2.8 2.6-3.5 4.7-.6 2-2.1 4.6-3.2 5.8-2 2.3-2.3 2.3-28.3 2.3-24.1 0-26.8.2-31.8 2.1-7 2.6-14.5 9.3-17.4 15.5-1.3 2.8-6.9 26.7-13.1 55.7-6 28-11.1 51-11.3 51.1-5 4.3-16.5 11.3-20 12.4-2.7.7-4.8 1.5-4.8 1.7 0 .2 1.7.9 3.7 1.4 3.4 1 4.3.7 10.3-2.5 3.6-2 8.1-5.1 10-6.9 1.9-1.8 5.4-4.3 7.8-5.5 9.9-4.9 31.5-8.1 40.9-6 6.2 1.4 12.5.4 12.1-1.8-.3-1.5-2.2-1.7-16.3-1.5-8.8.1-17.9.6-20.3 1.1-3.6.9-4.2.8-4.2-.7 0-2.2 5.8-27.9 6.5-29.1.4-.6 2.1-1 3.8-1 1.8.1 4.5-.2 6-.6 2.3-.5 2.9-.3 3.4 1.5.7 2.6 2.7 2.7 5.7.3 2.6-2 2.4-4.7-.2-3.3-2.1 1-6.6-.5-5.7-1.9.9-1.5 9.4-5.2 10.4-4.5.5.2 1.1-.1 1.4-.9.3-.8 2.1-1.7 3.9-2.1 1.8-.4 4.2-1.4 5.3-2.1 1.1-.8 2.9-1.4 4.1-1.4 2.4 0 6.4 4.3 6.4 6.9 0 1.3.2 1.3.9.2.6-.9 1.1-1 1.5-.2.7 1.1 4.6 1.6 4.6.5 0-1.5-4.5-6.1-7.3-7.4-3.6-1.7-4.6-5.3-2.4-8.4.9-1.3 2-1.6 3.5-1.2 2.7.9 2.8 2.3.2 3.1-1.1.3-2 1.1-2 1.6 0 .9 18 1 18 .1 0-.2-.6-1-1.2-1.7-.7-.8-1.9-2.1-2.6-3-.8-.9-2.1-1.3-3.2-1-1.1.3-2.9-.1-4.2-.9-1.3-.8-5.3-1.8-9.1-2.2-6-.6-6.7-.5-6.1.9.9 2.3-3.3 3.7-11.2 3.7-5 0-6.3.3-5.7 1.2.4.7.8 1.9.9 2.6.4 2.2 1.1 2.4 3.4 1.2 5.5-2.9 2.9 3.7-3 7.6-2.3 1.5-5.4 2.7-7 2.6-3.6-.1-4.8 1.4-1.8 2.1 3.5 1 1.4 1.9-4.6 2-4.5.2-5.5-.1-5.1-1.3.2-.8 2.9-13.1 5.9-27.2 3.1-14.2 6.2-27.1 7.1-28.7.8-1.6 2.9-4 4.7-5.3 3.2-2.2 4.1-2.3 25.1-2.6l21.8-.3-.7 5.3c-.4 2.9-1.1 5.8-1.6 6.4-.5.7-1.4 3.1-2.1 5.5-1 3.4-1.7 4.3-3.2 4.1-1.5-.3-1.7-.1-.8 1 .7.7 1.3 3.4 1.5 5.8l.3 4.5 1.7-3.2c1-1.7 2.2-6.1 2.7-9.6 1-6.8 2.6-11.1 4-10.3.4.3.6-.6.3-1.9-.4-2.5 3.3-11.5 4.9-11.5.8 0 1.5 6.1.9 8.5-.1.5-.5 1.9-.8 3-.4 1.6.1 1.4 2.3-1 3.6-3.7 5.7-11.5 4.9-17.8-.6-4-.3-5.2 1.4-7 1.1-1.2 2.8-4 3.8-6.2 1.3-3.1 1.8-3.6 2.1-2 1.5 8.3 2.6 12.5 3.3 12.5 1.5 0 5.1 7.3 6.1 12.3 1 5.4 3.7 10.8 5.6 11.4.7.3 1.8-.7 2.4-2.1 1.6-3.3 2.7-3.3 3.5.1.4 1.6 1.5 3.8 2.6 4.9 1 1.2 2.2 3.4 2.7 5 .9 3.6 4.6 4.5 5.6 1.4.4-1.1.4-3.4 0-5-.5-2.3-1.2-3-3-3s-2.4-.7-2.9-3.9c-.3-2.2-.9-4.6-1.2-5.5-.6-1.5 6-1.6 70.5-1.6 63 0 71.1.2 71.1 1.5 0 .9-9 43.3-20 94.3l-20 92.7-4.4 4.2c-2.5 2.4-5.1 4.3-5.8 4.3-.8 0-2.2-1.4-3.1-3-1-1.7-2.4-3-3-3-.7 0-2.2-.3-3.4-.6-3.3-.9-2.9 1.2 1.2 5.7 1.9 2.2 3.5 4.6 3.5 5.4 0 .8.5 2.4 1.2 3.5.7 1 .9 2.3.4 2.7-.4.4-1.2 0-1.7-1-1.5-2.6-2.9-2-2.9 1.2 0 4.5-3.4 4.8-6.1.5-1.1-1.9-2.6-3.4-3.2-3.4-.6 0-.1 1 1.1 2.3 2.6 2.8 2.7 3.5.5 5.9-1.5 1.7-1.8 1.7-3.4.2-2-1.8-2.4-1.4-3.1 3-.2 1.1-.8 2.1-1.5 2.3-1.8.6-5.3-3.4-5.3-6.1 0-4.1-1.7-3.9-4.4.6l-2.6 4.3v-3.3c0-3.8-1.4-4.1-4.7-1l-2.3 2.2.1-6.3c.1-3.4-.1-6.4-.4-6.7-.3-.3-2.2 1-4.2 3-3.8 3.8-5.1 4.4-5.7 2.4-.3-.9-1.1-.8-3.1.5-1.6 1-2.8 1.3-3.2.7-.8-1.2 1.2-7.9 3-10 .7-.8 1.8-2.9 2.5-4.6 1-2.3 3-3.9 6.7-5.8 6.2-3 8.6-3.2 13.7-1.1 2.6 1.1 5.2 1.4 8.6.9 6.4-.8 6.5-2.4.2-2.4-3.9 0-5.8-.6-9.2-3.2l-4.4-3.1-7.4 1.8c-4 1-7.5 2.2-7.8 2.7-.9 1.5-5.1.8-7.7-1.2-1.4-1.1-3.6-2-4.9-2-2.7 0-6.8-2.6-6.8-4.2 0-.7-.9-2.2-2.1-3.4l-2-2.1 4.5-2.7c6.9-4 15.1-3.2 38.1 3.8 2.8.9 6 1.6 7.1 1.6 3.2 0 6.7-3.2 6.2-5.8-.3-2-.5-2-2.8-.9-2.6 1.4-10.4.6-14.5-1.3-1.1-.5-4.1-1.4-6.6-2-2.6-.5-5.9-1.5-7.5-2.1-1.6-.6-6.6-1.1-11.2-1-7.5.1-8.8.4-12.5 3-2.3 1.6-5.2 4-6.4 5.3-2.4 2.5-7.3 12.9-7.3 15.3 0 2.8 2 1.5 2.1-1.3.1-4.4 1.2-6 5.2-8.1l3.8-1.9.9 2.3c1.1 2.9 7.6 9.3 10.4 10.1 3.7 1.1 7.4 5.3 6.8 7.7-.7 2.9-2.2 4.8-3.3 4.1-1-.6-25-.5-52.1.3l-19.6.5-2.1-4.7c-1.1-2.6-1.8-5.1-1.6-5.6.7-1.1-3.3-3.2-4.6-2.4-.6.4-.7-.3-.3-1.9.4-1.5.2-2.6-.4-2.6-.6 0-1.7-.3-2.6-.6-1.3-.5-1.6.2-1.6 3.4 0 3.5.5 4.3 3.3 6.1 3.1 1.9 4.7 4.1 6.1 8.3.4 1.2-.3 2.2-2.2 3.2-2.5 1.3-2.9 1.2-6.2-1.5-3.4-2.9-6-3.7-6-1.9 0 .5.9 1.4 2 2 3.6 1.9 4.2 4.6 2 8.2-1.1 1.8-2 3.7-2 4.3 0 .7 15 .9 43.5.7 37.5-.3 43.5-.1 43.5 1.1 0 2.7 9.9 3.8 11.9 1.3 1.5-1.7 4.8-.9 6.1 1.4 1 1.9 5 3 11.5 3.4 2.2.1 5.2.8 6.7 1.5 3.9 2 13.4 0 16.6-3.4 1.2-1.4 3.4-2.5 4.7-2.5 1.3 0 3.9-.6 5.7-1.4 1.8-.8 5.2-2 7.5-2.6 2.2-.7 6.3-2.9 8.9-4.9 9.9-7.5 8.4-2.2 33.1-115.9 12.2-56.5 22.5-103.7 22.8-105l.5-2.2H173.3l.5-2.5c.5-3.1-.8-3.3-2.7-.3-1.1 1.7-1.5 1.9-2.1.7-1.1-1.9-1.5-10.9-.6-13.6.4-1.2.3-3.9-.3-5.9-.8-2.8-.6-4.5.6-7.5 2.3-5.8.9-5.8-1.6 0zm-16.4 35.6c-.7 1.3-1.6 2-2 1.6-1.1-1.1 1.1-5.4 2.3-4.6.4.3.3 1.6-.3 3zM188 563c0 .5-.4 1-1 1-.5 0-1-.5-1-1 0-.6.5-1 1-1 .6 0 1 .4 1 1zm-73.7 41.8c-.6 2.5-3.2 3.1-2.9.6.2-1.4 2.7-3.7 3.3-3.1.1.2 0 1.3-.4 2.5zm168.6 155.6c-.3.3-1.1-.5-1.8-1.7-1.3-2.1-1.2-2.1.5-.5 1 1 1.6 2 1.3 2.2zM380.6 541.7c-.9 3-29.6 138.8-29.6 140.1 0 .9 4.7 1.2 18.4 1.2 18.2 0 18.4 0 18.9-2.3.4-1.2 2.7-11.9 5.2-23.7 2.5-11.8 4.8-22.5 5.2-23.8l.5-2.2h58.3l2.9-14.3c1.6-7.8 3.1-14.8 3.4-15.5.3-.9-5.8-1.2-28.7-1.2-16.4 0-29.1-.4-29.1-.9s1.4-6.8 3-14.1c1.7-7.3 3-13.4 3-13.6 0-.2 14.3-.4 31.8-.4h31.7l2.9-14.3c1.6-7.8 3.1-14.8 3.4-15.5.3-.9-10.1-1.2-50.1-1.2-47.3 0-50.6.1-51.1 1.7zM729.5 545.7c.5 5.3 9.5 133.8 9.5 136.2 0 .8 9.4 1.1 29.8 1.1l29.7-.1 35.5-70.5c19.5-38.7 35.7-70.9 35.8-71.4.2-.6-6.9-1-19.1-1h-19.4L804 595.2c-15 30.4-27.4 55.5-27.6 55.7-.2.2-.6.2-.9-.1-.3-.3-2.3-25.3-4.3-55.4l-3.7-54.9-19.3-.3-19.3-.2.6 5.7zM973 540.8c0 .8-28.1 134-29.5 139.9l-.5 2.3h32.5l11.9-56.3c6.6-30.9 13.4-63.1 15.1-71.5l3.2-15.2h-16.3c-9 0-16.4.4-16.4.8zM1024.5 542.2c-1.5 6.6-29.5 139.3-29.5 140 0 .4 7.2.8 15.9.8 14.3 0 16-.2 16.5-1.8.8-2.7 29.6-139 29.6-140.2 0-.6-5.6-1-16-1-15.7 0-16 0-16.5 2.2z"/><path d="M153 567.5c0 1.4-.7 2.8-1.5 3.1-2.2.9-1.9 2.3.4 1.7 1.2-.3 2 .2 2.4 1.6.3 1.2.1 2.1-.4 2.1-1.7 0-.9 2.1 1.7 4.5 1.6 1.5 2.4 3.2 2.2 4.6-.5 3.4-2 3.2-5-.8-2.4-3.1-2.8-3.3-2.8-1.5 0 1.2 1.3 3.1 3 4.4 1.7 1.2 3 2.5 3 3 0 .4-1.3 2.7-3 4.9-2.8 4-3.1 5.9-.8 5.9.5 0 .8-.7.4-1.5-.5-1.5 4.7-9 7.6-10.9 1.2-.7 2.4-.6 4.2.3 2.1 1.1 2.8 1.2 4.1.1 2.2-1.8 1.8-3-1-3-3.2 0-4.4-2.8-7-16.4-.6-2.7-.7-2.7-2-1-1.3 1.8-1.4 1.8-2.4-.9-1.3-3.4-3.1-3.5-3.1-.2zM197.8 567.3c.6.7 1.5 3.5 2 6.2.5 2.8 1 3.9 1.1 2.5.1-3.6-1.8-10-3.1-10-.7 0-.7.4 0 1.3zM213.6 571.5c-.5 2.9-1.2 4.5-2.1 4.5-.8 0-1.8 1.2-2.1 2.7-.4 1.5-1.6 4.2-2.7 6.1-2.8 4.7-1.3 5.2 1.6.5 2.4-3.8 5.5-7 6-6.2 2.3 3.2 4.2 7 5.7 11.7l1.8 5.7-.1-8c-.2-7.7-.3-8-2.4-7.8-2.1.3-2.3-.1-2.3-4.5 0-9.3-2.3-12.4-3.4-4.7zM204.1 577.3c-.8 1.1-1.1 2.7-.6 4.4.6 2.4.8 2.6 1.6 1 .6-1 .9-2.9.7-4.4-.3-2.4-.4-2.5-1.7-1zM195 577.9c0 .5.3 1.7.6 2.5.6 1.5.8 1.5 1.9-.1 1-1.3 1-2 .2-2.5-1.6-1-2.7-1-2.7.1zM513 583c-28.9 2.6-38.5 13.3-46.6 51.8-3 14.2-3.6 28.5-1.6 34.4 1.8 5 8 10.3 14.4 12.4 6.9 2.2 37.7 3.1 47.3 1.5 21.4-3.8 30.8-13.7 37.5-39.5 7.7-29.5 8-45.7.8-53.3-3.4-3.6-11.9-6.2-24.1-7.3-12.3-1.1-15.2-1.1-27.7 0zm18.9 25.1c5.6 2 6.3 6.3 3.5 21-2.5 13.6-6 23.1-9.4 26.4-3.1 2.9-3.3 3-14 3-13.9 0-14.5-.5-14.4-10.8.1-8.5 4.5-27.2 7.7-33 2.9-5.3 8.1-7.6 16.8-7.7 3.6 0 8 .5 9.8 1.1zM879.1 583.1c-15 2.6-25.1 11.4-28.9 25.1l-1 3.8h32.6l1.2-3.1c2-4.8 6.3-6.9 14.2-6.9 13.6 0 15 2.2 11.6 18.9-1.3 6.3-2.8 11.6-3.3 11.8-.6.1-1.7-1.2-2.5-3-2.7-5.7-7.4-7.2-23-7.2-9.9 0-15 .5-19.1 1.7-16.3 5.1-24.4 17.8-24.4 38.5 0 12 1.2 14.3 9.1 18.3 4.6 2.3 5.9 2.5 19.9 2.5 13.5 0 15.5-.2 20-2.3 5.7-2.6 10-6.4 12.3-10.7 2.3-4.6 2.6-1.4.4 5.9l-2 6.6h15.9c8.7 0 15.9-.2 15.9-.4s3.2-15.2 7.1-33.3c9.6-44.7 9.9-52.5 2.5-59.9-5.3-5.3-11.4-6.6-33.6-7-10.7-.1-21.9.1-24.9.7zm19.6 59.9c3.9 1.4 5.5 4.8 4.3 9.2-2.3 8.1-5.3 10.3-15.5 11.3-8.4.8-15-.6-16.6-3.7-1.5-2.9-.5-10.4 1.7-13 1.1-1.1 3.3-2.7 4.9-3.4 3.6-1.6 17-1.8 21.2-.4zM1093.9 583c-27 2.6-38.4 14.2-46 46.8-8.1 34.8-3 49 19 53.2 6.9 1.3 31.8 1.3 39.9 0 12.9-2.1 22.4-7.6 27.6-15.9 2.2-3.5 6.6-14.2 6.6-16.1 0-.6-6.3-1-15.7-1h-15.8l-1.7 4c-2.2 5.3-7.8 7.9-16.6 8-12.4 0-16.1-4-14.1-15.8.5-3.1.9-6 .9-6.4 0-.4 14.7-.9 32.7-1l32.7-.3 1.8-8.5c2.5-11.7 2.7-27.2.4-32.5-3.8-9-11.4-12.9-27.5-14.5-10.7-1.1-13.2-1-24.2 0zm17.4 23.1c3.9 1.8 5.6 7 4.1 12.6-.6 2.3-.9 2.3-16.5 2.3-18.1 0-17.8.2-13.6-8 3-6 7.1-8 16.4-8 4 0 8.3.5 9.6 1.1zM580 583.6c0 .3 3.5 11 7.9 23.7l7.9 23.2-20.3 26-20.2 26 19 .3c14.5.2 19.4-.1 20.2-1 .7-.7 5.4-8 10.5-16.1 6.1-9.8 9.6-14.4 10-13.5.4.7 2 7.1 3.4 14.3 1.5 7.1 3 13.8 3.2 14.7.5 1.6 2.3 1.8 19.5 1.8 10.4 0 18.9-.2 18.9-.4 0-.3-3.8-11.6-8.5-25.3-4.7-13.6-8.5-25.5-8.5-26.3 0-.8 7.9-11.8 17.5-24.3s17.5-23 17.5-23.3c0-.2-8.3-.4-18.5-.4h-18.6l-8.7 13.5c-4.8 7.4-9 13.4-9.3 13.5-.4 0-1.4-3.9-2.3-8.8-1-4.8-2.2-10.8-2.8-13.5l-1-4.7h-18.4c-10.1 0-18.4.3-18.4.6zM1156.7 588.7c.3 3.2 2.2 25.6 4.2 49.8l3.6 44 8.8.3c10.2.3 10.3.4 5.8 9.8-4.1 8.7-8.4 11.7-17.2 12.2-5.3.3-6.9.8-7.3 2.1-1.6 5.4-3.8 19.3-3.2 19.9.4.4 5.8.7 12 .6 19.1 0 30.4-5.3 39.4-18.2 2.9-4.1 13.7-27 30.4-64.4 14.2-32 26.4-59 26.9-60 .9-1.7.1-1.8-15.8-1.8h-16.8l-17 41.2-17 41.2-.6-7c-.4-3.8-.9-20.2-1.3-36.4s-.9-31.6-1.2-34.3l-.6-4.7h-33.6l.5 5.7zM122.4 588.5c-.4.8-1.4 1.5-2.4 1.5-1.1 0-2.2.4-2.5 1-.4.6.8 1 2.8 1 3.2 0 5.9 1.9 6.8 4.7.6 2 5.5-.9 5.1-3-.2-1 .4-1.7 1.4-1.7 1.3 0 1.1-.6-1-2.5-3.1-2.9-9.3-3.5-10.2-1zM225.9 591.7c-.8.9-1.3 2.6-1.1 3.7.7 5.3 1.3 6.8 2.7 6.2.9-.3 2.1.6 3.2 2.5 1 1.6 2.3 2.7 3 2.5.7-.3 1.3-.1 1.3.4 0 .6.6 1 1.4 1 1.3 0 3.2 3.6 3.8 7.5.2 1.1 1.4 2.2 2.8 2.5 1.4.3 2.7 1.5 2.9 2.5.2 1.1 1 2.5 1.9 3.1 1.1.8 1.3 2 .9 4.4-.6 2.6-.4 3.1.8 2.6 2.4-.9 2.4.6.4 6.4-1.5 4.1-1.8 6.8-1.3 10.8.4 3.5.2 5.7-.6 6.7-.7.8-.8 1.5-.2 1.5 1.5 0 2.6-2 5.1-9.8 2.1-6.3 2.3-7.5 1.1-9.8-1.2-2.1-1.2-2.9.3-5.3 2-3.4 2.2-16.8.3-19.1-.8-.8-1.8-2.9-2.4-4.5-.8-2.3-1.1-2.5-1.1-.9-.1 1.1-.7 2.8-1.4 3.7-1.1 1.6-1.4 1.5-3-1.2-1.2-2.1-2.8-3.2-5.3-3.7-3.6-.7-5.6-3-3.6-4.3.7-.4.8-1.2.2-2.1-.6-.8-1-2.5-1-3.7 0-2-.4-2.2-3.4-1.9-2.7.4-3.5.1-3.9-1.5-.6-2.3-2-2.4-3.8-.2zM165.6 592.7c-.6 1.4-.5 1.5.5.6.7-.7 1-1.5.7-1.8-.3-.3-.9.2-1.2 1.2zM142.6 599.5c2.5 1.9 4 1.9 2.4 0-.7-.8-2-1.5-2.8-1.5-1.3 0-1.2.3.4 1.5zM159.5 603.1c-.4.6-.5 1.2-.2 1.5.2.3.7-.2 1-1.1.7-1.7.1-2-.8-.4zM101.4 619.5c-1.6 1.2-1.6 1.4-.3 1.5.9 0 2.2-.7 2.9-1.5 1.6-1.9 0-1.9-2.6 0zM219.7 621.2c-2.8 3.7-4.5 11.2-2.8 12.3.6.3 1.1 0 1.1-.7.1-.7 1.9-2.2 4.2-3.3 5.9-2.8 6.4-5 .9-4.1-2.2.3-4.1.3-4.1 0 0-.4.9-2.2 2.1-4 2.6-4.3 1.8-4.4-1.4-.2zM102 623c0 .6-1.2 2.3-2.7 3.7l-2.8 2.7 2.9-1.9c1.7-1 3.1-1.4 3.3-.9 1 2.7 2.2 3.6 4.2 2.9 2.7-.8 2.2-2.9-.7-3.3-3.5-.5-2.6-1.8 2.1-2.9l4.2-1.1-5.2-.1c-3.1-.1-5.3.3-5.3.9zM92 632c-.8.5-3.3 1.2-5.4 1.5-2.7.4-5.1 1.8-7.5 4.3-3.6 3.7-6.5 9.7-5.5 11.3.7 1.2 3.4 1.1 3.4 0 0-.5 1-1.2 2.3-1.6 1.4-.4 1.7-.8.9-1.2-1-.4-1-.8-.1-1.9.6-.8 1.6-1.1 2.1-.8.5.3 1.7-.1 2.6-.9.9-.8 2.8-1.7 4.2-1.9 1.8-.2 2.6-1 2.8-2.7.2-1.4 1.1-3.5 1.9-4.8 1.6-2.4.9-2.9-1.7-1.3zm-2 4.7c0 1.1-5 3.3-7.4 3.3-2 0-1.9-.2.4-2 2.4-1.9 7-2.7 7-1.3z"/><path d="M231.5 633c-5.6 1.4-8 2.8-9.2 5.1-2.6 5.6-3.7 9.5-3.4 12.6.1 1.8-.2 3.3-.8 3.3-1 0-3.4-9.7-3.1-12.7.4-3.3 0-4.3-1.5-4.3-.8 0-1.5.1-1.5.3 0 .2-.5 2.9-1.1 6.1-1.1 6.3-.4 10 3.3 17.1 3.9 7.3 6.7 10.3 10.4 11 1.9.3 4.3 1.4 5.3 2.4 2.3 2.3 4.2 3 12 4.7 12 2.6 18.7 7.1 17.6 11.7-.5 2-1.4 2.7-3.8 2.9-2.9.3-3.2.7-3.5 3.9-.2 2.7.3 4.4 2.1 6.5 2.3 2.6 2.7 2.7 6.1 1.7 3.6-1.1 3.6-1.1 3.6 1.7 0 7.3-3.7 10.2-12.5 9.8-4.1-.2-5.6-.8-8.5-3.5-2.2-2.1-4.4-3.3-6.2-3.3-1.5 0-3.1-.6-3.5-1.3-2.2-3.5-21.2-10.7-24.7-9.4-.9.4-1.6 1.6-1.6 2.7 0 2.5-3 2.7-3 .2-.1-1-.9-.1-2.1 2.1-2 3.8-2 6.7.1 6.7.5 0 1-.8 1-1.8s1.6-2.5 3.9-3.6l3.9-1.8 11.3 4.1c6.2 2.3 11.8 4.1 12.5 4.1.6 0 1.4.9 1.7 2 .3 1.1 1.4 2 2.5 2s3.6.7 5.5 1.5c2.2.9 6.8 1.5 11.5 1.5 7.1 0 8.1-.2 10.2-2.5 1.4-1.5 3.5-2.5 5.1-2.5 4.9 0 7.5-9 4.3-15.2-1-1.8-1.4-4.5-1.1-6.7.2-2-.2-4.8-1-6.4-1.1-2.3-2-2.7-5.3-2.7-2.9 0-4-.4-4-1.5 0-.8-.5-1.5-1.2-1.5-.6 0-4-1.3-7.5-3-4.6-2.2-6.3-3.5-6.3-5 0-2.5-3.5-2.7-6.1-.4-4 3.6-18.7-3.4-22.5-10.7-1.3-2.6-.3-5.2 1.1-2.9 1.1 1.8 4.2 1.1 5.8-1.4.9-1.3 3.2-3.4 5.1-4.6 3.1-1.9 3.6-2.7 3.6-6.1 0-3.4-.3-3.9-2.4-3.9-1.5 0-2.6-.7-2.9-2-.6-2.4.5-3.2 4.1-3 1.5.1 3.2.2 3.9.1 1.7-.2 4.4-3.1 3.8-4.2-.7-1.1-6.7-1-11 .1zm-2.5 5c0 .5-.2 1-.4 1-.3 0-.8-.5-1.1-1-.3-.6-.1-1 .4-1 .6 0 1.1.4 1.1 1zm-3.6 4.2c-.4.5-.1 2.8.6 4.9 1.4 4.2.3 6.9-2.7 6.9-1.2 0-1.3-.6-.7-2.8.4-1.5.9-4.3.9-6.2.3-4.9.4-5.2 1.5-4.5.6.4.7 1.1.4 1.7zm47.5 59.2c1 2.2 1.1 3.4.2 5.3-1.5 3.3-3.4 2.5-4.5-1.9-1.7-6.6 1.5-9.1 4.3-3.4zM96.1 636.9c-.7.5-1.2 1.4-.9 2.1.2.7 1 .4 2.2-.9 1.9-2.1 1.2-2.8-1.3-1.2zM89.6 647.6c-.4.9-.4 1.9-.1 2.2.2.3.7-.3 1.1-1.2.4-.9.4-1.9.1-2.2-.2-.3-.7.3-1.1 1.2zM274.6 648.2c.6 1 4.5 1 6.1 0 .6-.4-.5-.7-2.7-.7-2.1 0-3.6.3-3.4.7zM261 649c-1.3.9-1.3 1 0 .9.8-.1 2.6-.5 4-.9l2.5-.8-2.5-.1c-1.4 0-3.2.4-4 .9zM163.7 653.7c.5 1.3.2 1.5-1.5 1.1-3.4-.9-2.6-.2 3.1 2.7 6.4 3.4 7.7 4.4 7.7 6.1 0 1.1-1.8 1.4-7.4 1.4-4.9 0-7.7.4-8.5 1.3-1.8 2.2-.1 2.7 3.2 1 3-1.5 9-1.4 14.5.2 1.8.6 2.2.4 2.2-1.6 0-1.6-2-4.2-6.2-8.1-6.3-5.9-8.2-7.1-7.1-4.1z"/><path d="M239.3 660.1c-3.9 4.2-5.2 6.3-5.2 8.9.1 1.3.1 1.3.6 0 .3-.8 2.8-4.1 5.5-7.3 5.7-6.5 4.9-7.9-.9-1.6zM258.5 657c.4.6 1.1.8 1.6.5 1.4-.9 1.1-1.5-.7-1.5-.8 0-1.2.5-.9 1zM247.3 658.5c-3.7 1.6-8.8 6.3-7.9 7.2.3.4 1.5-.2 2.6-1.2 1.5-1.4 2.3-1.6 3.2-.7.9.9.7 1.6-.7 3.2-1 1.1-1.4 2-.9 2 .5 0 1.8-.9 2.7-2.1 1.2-1.4 2.4-1.8 3.5-1.3.9.4 3.5.9 5.7 1.1 3.8.4 3.9.3 2.1-1.2-1.1-.8-2.7-1.5-3.6-1.5-3.3 0-5.6-5.2-2.7-6.3.6-.3.8-.6.2-.6-.5 0-2.5.6-4.2 1.4zM267.5 658.5c3.3 1.5 11.1 2.1 8.5.6-.8-.5-3.7-1.2-6.5-1.5-4.9-.6-5-.6-2 .9zM61.5 671.5c-2.2 1.3-5.1 2.5-6.5 2.5-2.5.1-2.5.1-.3 1.2 1.8.9 3 .5 6.9-2.1 5.5-3.6 6.1-3.7 8.6-1.4 1.8 1.6 2 1.5 4.1-.6l2.2-2.3L74 670c-1.8 1-2.5 1-2.8.1-.6-1.9-5.5-1.2-9.7 1.4zM84.8 669.7c.7.3 1.6.2 1.9-.1.4-.3-.2-.6-1.3-.5-1.1 0-1.4.3-.6.6zM167.8 673.1c-3 1.5-6 3.5-6.7 4.3-.8.9-3.1 1.9-5.3 2.2-2.9.5-3.8 1.1-3.6 2.3.3 1.3 1.8 1.7 7.6 1.9 6.7.3 7.2.5 7.8 2.7.4 1.7 1.3 2.5 2.9 2.5 1.2 0 4.2.7 6.6 1.5 4.8 1.7 11.9 1.2 15.6-1.1 1.2-.8 3.3-1.4 4.6-1.4 2.8 0 6-3.1 4-3.7-.7-.3-1.3-1-1.3-1.6 0-1.6-5.6-5.9-10.8-8.1-3.5-1.6-4.7-1.7-6.9-.7-2.5 1.2-4.2.3-4.3-2 0-1.9-5.3-1.3-10.2 1.2zm21.9 7.1c3.2 3 3 6.6-.4 7.9-3.4 1.3-6 .4-4.4-1.5.6-.7 1-2.2 1-3.2-.3-3 0-5.4.8-5.4.4 0 1.7 1 3 2.2zm-14.3 1.9c2.4 4.8.6 6.3-3.8 3.4-2.1-1.4-2.2-1.9-1.2-4 1.5-3.3 3.1-3.1 5 .6zM90.8 675c2.3 1 2.9 2.5 1.2 3.5-.5.3-1 1.2-1 1.8 0 .7.8.2 1.8-1 1-1.3 3.1-2.3 5.1-2.5 6.2-.6 4.4-2.3-2.7-2.5-4.8-.1-6.1.1-4.4.7zM44 682.6c0 .8.4 1.3.9.9.5-.3 1.2-.1 1.5.4.4.5.2 1.2-.4 1.6-.5.3-1 1.6-1 2.9 0 1.7-13.1 63.6-16.5 78.3L28 769h21.6c21.2 0 21.6 0 23.5 2.2 1 1.3 1.8 2.6 1.9 3 0 .4.4 1.8 1 3.2.8 2.1 1.3 2.4 3.2 1.7 1.9-.7 2.3-1.7 2.5-5.2.1-2.4 0-5.9-.3-7.7-.5-3.3-.6-3.3-2.4-1.7-4.1 3.7-6.3-.5-3.9-7.6 1.6-4.8 4.8-7.9 8-7.9 1.6 0 2.9-.7 3.3-1.6.5-1.3 1.5-1.5 4.7-1.1 2.5.3 5.1 0 6.7-.9 1.5-.7 4.9-1.6 7.5-1.9 4.4-.6 4.8-.9 4.3-2.8-.4-1.8.1-2.5 2.4-3.5 3.1-1.4 5.5-.8 4.4 1-.7 1.1 1.5 5.8 2.7 5.8.4 0 .9-1 1.1-2.3.2-1.8.9-2.2 3.3-2 3 .3 2.9.3-.7-1.4-3.3-1.5-3.8-2.2-3.8-5 0-1.8-.5-3.3-1.2-3.3-.6 0-.3-.9.7-2 1.8-2 1.1-2.5-1.8-1.4-.9.3-1.2 1.4-.9 3 .3 1.7 0 2.4-1.2 2.4-1.1 0-1.6-.9-1.6-2.6 0-1.8-.6-2.8-2.1-3.1-1.2-.3-1.8-1.1-1.5-1.9.4-1-.2-1.4-1.9-1.4s-2.3-.4-1.9-1.4c.3-.8-.3-1.6-1.6-1.9-2.6-.7-2.2-2.7.6-4.2 1.1-.6 3.1-2.1 4.4-3.4 2.3-2.1 2.3-2.2.3-1.2-2.9 1.5-3.6 1.4-2.9-.5.3-.9.2-1.2-.5-.9-.5.4-1.8-.3-2.8-1.4-1-1.2-2.6-2.1-3.6-2.1s-1.5-.5-1.2-1.4c.3-.7 0-1.9-.6-2.5-1.3-1.3-4.1-1.5-3.3-.2.7 1-3.7 3.1-6.5 3.1s-1.9-2.3 1.2-3.1l2.4-.7-2.4-.1c-3.2-.1-9.3-4-8.5-5.3.5-.7.2-.8-.5-.4-.7.5-1.6 1.8-2.1 3.1-.7 1.8-1.4 2.1-3.5 1.7-3.3-.6-6.2-5.1-7.1-10.8-.7-5.2-1.8-6.9-3.5-5.8-.8.5-4.3.8-7.9.6-3.6-.1-5.9.1-5.2.4.6.3 1.2 1.4 1.2 2.4 0 1.3-.5 1.7-2 1.3-1.2-.3-2-1.3-1.9-2.2.3-3.8-.2-5.1-2.1-5.1-1.1 0-2 .7-2 1.6zM76 703c3.8 0 5.2.4 6 1.9.5 1.1 2 2.1 3.2 2.3 3.1.4 3.4 2.6.4 3.8-2.9 1.1-3.4 2.8-1.1 3.6 2.7 1.1 1.6 2.3-3.2 3.6-4.9 1.4-7.8 4.6-3 3.4 4-1 4.3 1.2.7 4.5-2.7 2.5-3.1 3.5-2.7 6.4.3 2 1 4.2 1.7 5 1 1.2.9 1.6-.4 2.1-.9.3-1.6 1.2-1.6 1.9s-.6 1.5-1.2 1.8c-1 .3-1 .7.1 2 1 1.3 1.8 1.4 3.3.6 1.7-.9 1.8-.8.9.8-3.6 6.2-3.9 6.3-18 6.3-7.2 0-13.1-.2-13.1-.4 0-.9 12.1-57.3 12.6-58.6.3-1 1.9.1 5.5 3.8 4.7 4.9 5.3 5.2 9.9 5.2zm7-3c2 1.2.9 2.1-1.8 1.3-1.2-.3-1.9-.9-1.6-1.4.7-1.1 1.5-1.1 3.4.1zm20.2 12.2c-1 1-8.4 2.9-9 2.3-.2-.2 1.6-1.2 4-2.3 4.2-1.9 6.9-1.9 5 0zM99 720c0 .5-.4 1-.9 1-.6 0-1.3-.5-1.6-1-.3-.6.1-1 .9-1 .9 0 1.6.4 1.6 1zm9 9.8c0 1.5-2.4 3.2-4.4 3.2-2-.1-2-.1.3-2 2.4-2.1 4.1-2.6 4.1-1.2zm-8 2.6c0 .8-.7 1.7-1.6 2-2.3.9-2.4.8-2.4-1.4 0-1.3.7-2 2-2 1.1 0 2 .6 2 1.4zm-9.7 5.8c-2.1 1.1-4.3 2.6-4.9 3.4-1.4 1.7-4 1.8-5 .2-.9-1.4 2.3-3.8 5.1-3.8 1.2 0 3-.9 4-2 1.4-1.5 2.1-1.7 3.2-.9 1 .9.6 1.5-2.4 3.1zm17.2-1.2c0 2.3-2.9 2.3-4.3 0-1.2-2-1.1-2.1 1.5-1.8 1.7.2 2.8.9 2.8 1.8zM32.2 684c-4.2 2.3-4.9 3-3.1 3 .8 0 3-1.1 4.9-2.5 4-2.9 3-3.2-1.8-.5zM92.7 685.4c-.4 1-.1 1.3.9.9.7-.3 1.4-.9 1.4-1.4 0-1.4-1.7-1-2.3.5z"/><path d="M80.2 688c-1.7 2.8-1.6 5.6.2 4.1.8-.7 1.6-.8 1.8-.4.3.4.4.3.2-.3-.1-.6.2-1.6.8-2.2 1-1 .3-3.2-1-3.2-.4 0-1.3.9-2 2zM89 690.5c-.7.9-1.1 1.8-.8 2 .3.3 1.1-.1 1.8-1s1.1-1.8.8-2c-.3-.3-1.1.1-1.8 1zM189 696c-4.3 1-14.1 2.9-19.7 3.8-3.3.5-4 1-3.4 2.1.8 1.2 1.9 1.2 7.8-.2 7.4-1.9 14.3-2.3 12.8-.8-1.1 1-16.4 9.1-17.2 9.1-.3 0-.3-.7.1-1.5 1-2.7-3 .1-6.6 4.7-1.8 2.2-5.8 6.9-8.8 10.2-5 5.5-8 9.7-8 11.1 0 .3.6.5 1.3.5.7 0 2.3-1.8 3.7-4.1 1.4-2.2 4.5-5.6 7-7.4 2.5-1.8 5.4-4.3 6.5-5.5 2.3-2.5 5.7-4.4 9.8-5.4l2.9-.7-2.6 3.4c-1.4 1.9-2.6 3.7-2.6 4 0 .4-1.5 3-3.3 5.9-6.1 9.8-7.9 15.8-4.7 15.8 1 0 5.6-8 8.1-14.3 1.9-4.8 6.3-9.7 15.2-17 3.3-2.6 4.7-4.5 4.7-6.2 0-1.4.4-2.5.9-2.5s1.6-1.4 2.5-3c1.4-2.9 1.4-3-.7-2.9-1.2.1-3.8.5-5.7.9zm0 8.2c-.1 2.7-2.8 5-5 4.3l-2.2-.7 2.3-2.4c2.4-2.6 4.9-3.2 4.9-1.2z"/><path d="M159.2 706.7c-1.8.7-8.1 7.5-8.2 8.8 0 .5-2.5 3-5.5 5.5-2.9 2.4-5.2 4.6-5 4.8.8.8 5.1-2.4 10.9-8.2 3.4-3.5 7.4-7.1 8.9-8.1 4-2.6 3.2-4.5-1.1-2.8zM357.9 707c-9.2 1.6-15.3 6.1-18.8 14-2.5 5.8-7.1 27.6-7.1 33.9 0 6.1 3.2 11.1 8 12.8 2 .7 9.2 1.2 16.5 1.2 11.7.1 13.5-.2 18.2-2.3 5.9-2.8 9.3-7.2 11.7-15.4l1.5-5.2H371.2l-.7 2.9c-1.1 4.9-3.9 6.6-11 6.6-8.8 0-9.9-1.2-9.1-9.5.8-9.3 4-20.8 6.3-23.1 1.3-1.3 3.9-2.2 7.6-2.6 7.1-.7 10.7 1.2 10.7 5.7v3h7.9c9.1 0 9.1 0 9.1-9.4 0-8.2-2-11-9.1-12.5-5.6-1.2-18-1.3-25-.1zM445 706.6c-10.2 2-17 6.6-20.4 13.8-2.7 5.7-7 25.4-7 32.6-.2 12.4 5 15.9 23.5 16 13.4 0 19.6-1.5 25.2-6.1 5.3-4.4 7.4-9.1 10.8-24.7 4.5-20.2 3.3-25.9-6.1-29.9-3.5-1.5-21-2.6-26-1.7zm16.5 16.4c1.8 2 1.8 2.4-.8 14.8-3.5 16.5-4.6 17.7-15.3 17.7-6.8 0-7.8-.3-9.5-2.4-2.2-2.6-2.1-3.5 1.3-18.5 2.8-12.3 4.2-13.6 14.6-13.6 6.6 0 8.2.3 9.7 2zM1085.1 707.5c-8.5 2.7-12.9 9.6-13.8 21.9-.5 6.5-.3 7.6 1.5 9.4 2.7 2.7 7.5 3.9 18.7 4.8 11.4.8 12.8 1.5 12 5.7-1.1 5.2-3.7 6.7-11.9 6.7-7.7 0-9.6-.9-9.6-4.7 0-2.2-.3-2.3-7.9-2.3h-8l-.7 4.5c-.9 6.4 1.2 11.5 5.6 13.8 3 1.5 5.6 1.7 18 1.5 13.1-.3 15-.5 19.5-2.8 2.7-1.4 6-4 7.2-5.8 2.4-3.6 4.6-12.4 4.6-18.5 0-6.9-2-7.8-22.8-10.9l-9-1.3v-4c0-4.9 2.5-6.5 10.2-6.5 6.7 0 8.3.7 8.3 3.6 0 2.3.2 2.4 7.9 2.4 7.3 0 7.9-.2 8.5-2.3 2.1-7.7-.7-13.9-7.2-15.7-5.3-1.4-25.8-1.1-31.1.5zM509 736.7c-3.4 16.4-6.5 30.4-6.8 31.1-.3 1 1.4 1.2 7.9 1l8.3-.3 4.7-23.3c3.9-19.5 5.6-26.5 6-24.1 0 .2 1.7 11 3.7 23.9l3.7 23.5 14.1.3 14.1.3 3.7-17.8c2-9.8 5-23.8 6.5-31.1l2.9-13.3-8.2.3-8.1.3-4.4 23.5c-2.4 12.9-4.5 23.7-4.7 23.9-1 1.1-1.6-2.1-5.2-24l-3.8-23.4-14-.3-14.1-.3-6.3 29.8zM608.5 708.2c-.4 1.4-2.5 11.6-2.5 12.3 0 .3 3.6.5 8.1.5 7.9 0 8.1.1 7.6 2.2-.3 1.3-2.4 11.3-4.7 22.3-2.2 11-4.3 20.8-4.6 21.8-.5 1.6.2 1.8 7.7 1.5l8.3-.3 4.8-23.5c2.6-12.9 4.7-23.6 4.8-23.8 0-.1 3.8-.2 8.4-.2h8.5l1.1-5.8c.6-3.1 1.3-6.3 1.5-7 .3-.9-4.9-1.2-24.1-1.2-18.7 0-24.6.3-24.9 1.2zM688.4 723.7c-4.7 9.3-12 23.2-16 31L665 769h17l2.7-5.5 2.7-5.6 11.6.3 11.5.3.3 5.2.3 5.3H728l-.5-3.8c-.3-2-1.4-13.8-2.5-26.2-1.1-12.4-2.3-24.6-2.6-27.3l-.6-4.7H697.1l-8.7 16.7zm20.7 15.3l.2 7.5-7.6.3c-4.3.2-7.7 0-7.7-.3s3-6.5 6.7-13.8l6.7-13.2.7 6c.4 3.3.8 9.4 1 13.5zM769 707.4c0 .2-2.9 14-6.5 30.6s-6.5 30.4-6.5 30.6c0 .2 3.6.4 7.9.4 6.7 0 8-.3 8.5-1.8.6-2.3 12.6-58.7 12.6-59.5 0-.4-3.6-.7-8-.7s-8 .2-8 .4zM819 707.4c0 .2-2.9 14-6.5 30.6s-6.5 30.4-6.5 30.6c0 .2 3.6.4 7.9.4 5.4 0 8-.4 8.4-1.3.2-.6 2.4-11.4 4.8-24 2.4-12.5 4.6-22.7 5-22.7.8 0 1.4 3.8 5.6 30.3l2.7 17.8 14-.3 14-.3 6.3-29c3.4-16 6.2-29.8 6.3-30.8 0-1.5-1-1.7-7.8-1.7h-7.9l-4.3 23.2c-2.4 12.8-4.7 23.7-5.1 24.2-1 1.1-1.1.5-4.9-22.9-1.7-10.5-3.3-20.2-3.6-21.8l-.6-2.7h-13.9c-7.6 0-13.9.2-13.9.4zM914.6 708.7c-.6 2.4-12.6 58.8-12.6 59.6 0 .4 10.1.7 22.5.7H947l.5-2.3c.3-1.2.9-4.1 1.4-6.5l.9-4.2h-14.4c-7.9 0-14.4-.4-14.4-.8 0-.5.5-3.4 1.1-6.5l1.2-5.7h13.3c14.7 0 13.6.5 15-7.3l.6-3.7h-13.1c-7.2 0-13.1-.3-13.1-.8 0-.4.6-3 1.3-5.7l1.3-5 14.2-.3 14.2-.3.6-2.7c1-4.5 1.4-6.1 2-8.2.5-2 .1-2-22-2-20.5 0-22.5.2-23 1.7zM990.6 714.2c-.9 4-3.8 18-6.5 31l-4.8 23.8h16.4l1.4-7.8 1.4-7.7 8.2-.3c7.6-.3 8.3-.1 9.7 2 1.2 1.8 1.3 3.2.6 6.3-1.8 7.6-1.9 7.5 6.9 7.5h7.8l1.2-5.7c2.3-11.6 1.3-14.8-5.4-17l-3-1 4.3-1.3c6.2-1.9 9.7-6.4 11.6-14.9 3.2-13.8 1.5-18.9-6.8-21-2.5-.6-12.6-1.1-23-1.1h-18.5l-1.5 7.2zm33.3 9.2c1.6 1.9-.5 10.9-3.1 13.3-1.5 1.4-4 1.9-10.4 2.2-5.5.2-8.4-.1-8.4-.8 0-.6.7-4.4 1.7-8.6l1.6-7.5h8.7c6.2 0 9.1.4 9.9 1.4zM142.9 709.8c-2 1.4-2.6 4.2-.8 4.2.8 0 9.5-4.4 10.6-5.4 1.1-.9-8.4.2-9.8 1.2zM125.6 726.8c-.7 1.2.7 2.7 2.7 2.8 1 .1 1.7-.5 1.7-1.7 0-1.9-3.4-2.7-4.4-1.1zM150.1 740.8c-1.7 3.1-1.3 4 .5 1.4.9-1.3 1.4-2.6 1.1-2.9-.3-.2-1 .4-1.6 1.5zM1144.1 755.2c-1.3 5.7-2.5 11.3-2.8 12.5-.4 2-.1 2.3 2.5 2.3 2.1 0 3.2-.6 3.6-1.8.8-2.8 4.6-21.1 4.6-22.2 0-.5-1.3-1-2.8-1-2.8 0-2.9.2-5.1 10.2zM1154.1 755.2c-1.3 5.7-2.5 11.3-2.8 12.5-.4 2-.1 2.3 2.5 2.3 3.4 0 3.5 0 5.3-10.8.7-4 1.6-7.5 1.9-7.7.7-.4 3 12.3 3 16.5 0 1.8.7 2 5.5 2 3.6 0 5.7-.5 6-1.3.3-.6 1.5-6.3 2.9-12.5l2.4-11.3-3.1.3c-2.7.3-3.2.8-3.8 3.8-2.7 13.7-3.2 15.3-3.9 13.9-.4-.8-1.1-4.1-1.5-7.4-1.2-10.7-1-10.5-6.9-10.5h-5.3l-2.2 10.2zM1185.5 747.3c-2.7 2.2-5.4 10.9-5.5 16.9 0 3.7 3.4 5.8 9.2 5.8 6.7 0 9.7-1.4 11.3-5.5 2-4.6 2-4.5-2-4.5-2.4 0-3.5.5-3.5 1.4 0 1.8-3.3 2.9-6.1 2.1-1.9-.6-2-1.2-1.4-5.3.4-2.6 1.1-5.5 1.6-6.5 1.2-2.1 6.7-2.3 7.5-.2.4.8 1.9 1.5 3.4 1.5 3.3 0 4.7-2.8 3-6-.9-1.7-2.1-2-8-2-5.7 0-7.3.4-9.5 2.3zM91.2 758.7c-2.6 5.2-3.3 9.7-2.1 13.1.9 2.7 1.6 3.1 6.2 3.6 6 .7 11.1-.5 14.1-3.3 2.8-2.6 9.2-1.9 10.2 1.1.4 1.3 1.3 1.8 2.7 1.6 1.7-.2 2.3-1.1 2.5-3.9.4-5-1.2-6-7.7-5-4.4.7-5.3.6-5.8-.8-2.3-7.7-4.7-8.4-3.7-1.2.5 4.2.4 5.1-1.3 5.9-1.4.8-2.5.6-4.3-.9-3.2-2.4-3.7-2.4-4.5.1-.3 1.1-1.2 2-2 2-1.7 0-2.9-8.3-1.6-10.9.6-1.1 1.1-2.7 1.1-3.5 0-2.8-1.9-1.7-3.8 2.1zM1203.6 766.2c-.9 3.5-.8 3.8 1.8 3.8 1.6 0 2.6-.7 3-2.3.9-3.4.8-3.7-1.8-3.7-1.6 0-2.6.7-3 2.2z"/></svg>